<?xml version="1.0" encoding="UTF-8"?>
<svg width="51px" height="14px" viewBox="0 0 51 14" version="1.1" xmlns="http://www.w3.org/2000/svg" xmlns:xlink="http://www.w3.org/1999/xlink">
    <!-- Generator: Sketch 49.3 (51167) - http://www.bohemiancoding.com/sketch -->
    <title>[24]7ai_Logo_Standard</title>
    <desc>Created with Sketch.</desc>
    <defs></defs>
    <g id="Page-1" stroke="none" stroke-width="1" fill="none" fill-rule="evenodd">
        <g id="Customer-search-Copy-2" transform="translate(-20.000000, -13.000000)" fill="#FFFFFF" fill-rule="nonzero">
            <g id="Group">
                <g id="[24]7ai_Logo_Standard" transform="translate(20.000000, 13.000000)">
                    <polygon id="Shape" points="36.997037 3.06755556 30.8990741 3.06755556 30.8990741 0.528888889 40.1231481 0.528888889 40.1231481 2.95555556 34.8562963 13.5488889 31.6011111 13.5488889"></polygon>
                    <path d="M4.59,10.6275556 L9.70888889,6.08533333 C9.98327779,5.83375666 10.2438948,5.56789763 10.4896296,5.28888889 C10.744601,5.00542314 10.8837485,4.63835887 10.88,4.25911111 C10.8951107,3.85655582 10.7121092,3.47167297 10.3888889,3.22622222 C10.0668883,2.97434243 9.66613141,2.84122829 9.25555556,2.84977778 C8.7983315,2.82341495 8.35259558,2.99756293 8.03722222,3.32577778 C7.74663632,3.65384576 7.57688196,4.06940129 7.55555556,4.50488889 L4.7662963,4.30266667 C4.78404684,3.69372944 4.92985493,3.09510902 5.19444444,2.54488889 C5.42828288,2.06472638 5.76442071,1.64021102 6.17981481,1.30044444 C6.6043449,0.962647104 7.09219472,0.711019302 7.61537037,0.56 C8.19784582,0.39013216 8.80252594,0.306263214 9.40981481,0.311111111 C9.97779278,0.307412505 10.5428716,0.391387074 11.0846296,0.56 C11.5818465,0.713075507 12.0431427,0.962692933 12.4414815,1.29422222 C12.8331853,1.62824271 13.142262,2.04649399 13.345,2.51688889 C13.5684399,3.05963851 13.6756323,3.64226081 13.6598148,4.228 C13.6670625,4.60907415 13.6258133,4.98953754 13.537037,5.36044444 C13.4570752,5.6805701 13.3353782,5.98907652 13.175,6.27822222 C13.0230052,6.55247223 12.8391714,6.80827338 12.6272222,7.04044444 C12.4101736,7.2798306 12.1800138,7.50728272 11.9377778,7.72177778 L7.93962963,11.1222222 L13.7825926,11.1222222 L13.7825926,13.552 L4.59,13.552 L4.59,10.6275556 Z" id="Shape"></path>
                    <path d="M37.7777778,12.7337778 C37.778488,12.6153671 37.8019925,12.4981715 37.847037,12.3884444 C37.8908412,12.2828697 37.9549939,12.1867162 38.0359259,12.1053333 C38.1174151,12.0243053 38.2149408,11.9607591 38.3224074,11.9186667 C38.5462175,11.8273997 38.7974863,11.8273997 39.0212963,11.9186667 C39.1297206,11.9606996 39.228288,12.0242264 39.3109259,12.1053333 C39.3908542,12.1875134 39.4548737,12.2834673 39.4998148,12.3884444 C39.5921683,12.6096214 39.5921683,12.8579341 39.4998148,13.0791111 C39.4556615,13.1845032 39.3915505,13.2805942 39.3109259,13.3622222 C39.228288,13.4433291 39.1297206,13.5068559 39.0212963,13.5488889 C38.7974863,13.6401559 38.5462175,13.6401559 38.3224074,13.5488889 C38.2149408,13.5067965 38.1174151,13.4432503 38.0359259,13.3622222 C37.9542781,13.2814136 37.8900252,13.1851098 37.847037,13.0791111 C37.8019925,12.969384 37.778488,12.8521885 37.7777778,12.7337778 Z" id="Shape"></path>
                    <path d="M45.452963,12.7306667 L45.4246296,12.7306667 C45.2077865,13.073469 44.8872766,13.3401394 44.5085185,13.4928889 C44.1267745,13.6467037 43.7181769,13.724925 43.3059259,13.7231111 C43.0008998,13.7240085 42.697442,13.6799691 42.4055556,13.5924444 C42.129144,13.5127684 41.8705961,13.381848 41.6437037,13.2066667 C41.4237893,13.035016 41.2452783,12.8171592 41.1211111,12.5688889 C40.9877705,12.2933619 40.9219815,11.9906689 40.9290741,11.6853333 C40.9179833,11.3505972 40.990422,11.0183076 41.14,10.7177778 C41.2794925,10.4596069 41.4777963,10.2370096 41.7192593,10.0675556 C41.9729438,9.89096287 42.2535045,9.75548357 42.5503704,9.66622222 C42.8673135,9.57082478 43.1915967,9.50111255 43.52,9.45777778 C43.8528878,9.41113301 44.1881739,9.38308843 44.5242593,9.37377778 C44.857963,9.37377778 45.1538889,9.37377778 45.452963,9.37377778 C45.4662323,9.04046026 45.320555,8.72028558 45.0594444,8.50888889 C44.7972245,8.29923537 44.4679147,8.18891824 44.1307407,8.19777778 C43.8097747,8.19293334 43.4923348,8.26442399 43.2051852,8.40622222 C42.9212077,8.55141191 42.6671127,8.74765413 42.4559259,8.98488889 L41.3540741,7.87111111 C41.7410741,7.51506724 42.2004118,7.24461609 42.7014815,7.07777778 C43.214357,6.89994823 43.7540657,6.80947706 44.2975926,6.81022222 C44.8049481,6.79381523 45.3109646,6.87082921 45.7898148,7.03733333 C46.1596779,7.16624513 46.4864502,7.39337104 46.7342593,7.69377778 C46.9746789,8.00251757 47.1414783,8.36090508 47.2222222,8.74222222 C47.3198505,9.22352473 47.3662759,9.71359771 47.3607407,10.2044444 L47.3607407,13.5582222 L45.4718519,13.5582222 L45.452963,12.7306667 Z M44.942963,10.6648889 C44.7887037,10.6648889 44.5935185,10.6648889 44.3605556,10.6866667 C44.1312076,10.6991688 43.9040868,10.7377949 43.6837037,10.8017778 C43.4826087,10.8576443 43.2958692,10.9552186 43.1359259,11.088 C42.981403,11.219976 42.8976576,11.415382 42.9092593,11.6168889 C42.8985717,11.8433246 43.0212426,12.0554731 43.2240741,12.1613333 C43.4256587,12.2745241 43.6533355,12.3345236 43.8851852,12.3355556 C44.0823039,12.3372536 44.2785835,12.3099929 44.4675926,12.2546667 C44.6470041,12.2053951 44.8171221,12.1276412 44.9712963,12.0244444 C45.1205205,11.9278465 45.2445631,11.7978017 45.3333333,11.6448889 C45.4245382,11.4778475 45.4701103,11.2901978 45.4655556,11.1004444 L45.4655556,10.6648889 L44.942963,10.6648889 Z" id="Shape"></path>
                    <path d="M48.5035185,4.87511111 C48.5069612,4.22360225 49.0405499,3.69629109 49.6998148,3.69288889 C50.3603088,3.69458866 50.8958034,4.22239434 50.8992593,4.87511111 C50.9000237,5.35385466 50.6085468,5.78579377 50.1610221,5.96910323 C49.7134975,6.1524127 49.1982816,6.05090105 48.8561111,5.712 C48.6257934,5.4937223 48.4980089,5.19042202 48.5035185,4.87511111 Z M48.6703704,6.95644444 L50.7324074,6.95644444 L50.7324074,13.5582222 L48.6703704,13.5582222 L48.6703704,6.95644444 Z" id="Shape"></path>
                    <path d="M20.8911111,10.9386667 L15.0607407,10.9386667 L15.0607407,8.624 L19.1816667,0.532 L23.5701852,0.532 L23.5701852,8.62088889 L25.2638889,8.62088889 L25.2638889,10.9355556 L23.5701852,10.9355556 L23.5701852,13.5488889 L20.8911111,13.5488889 L20.8911111,10.9386667 Z M20.8124074,3.64933333 L20.6864815,3.64933333 L18.1837037,8.62711111 L20.8911111,8.62711111 L20.8124074,3.64933333 Z" id="Shape"></path>
                    <polygon id="Shape" points="26.1485185 0.532 29.1644444 0.532 29.1644444 13.5333333 26.1485185 13.5333333 26.1485185 12.656 27.8485185 12.656 27.8485185 1.40933333 26.1485185 1.40933333"></polygon>
                    <polygon id="Shape" points="3.01592593 1.40933333 1.31592593 1.40933333 1.31592593 12.656 3.01592593 12.656 3.01592593 13.5333333 0 13.5333333 0 0.532 3.01592593 0.532"></polygon>
                </g>
            </g>
        </g>
    </g>
</svg>